# Blender v3.0.0 OBJ File: 'Banana.blend'
# www.blender.org
mtllib Banana.mtl
o Banana_Cylinder
v 0.418710 2.317531 0.837680
v 0.464144 2.293883 1.786302
v 0.434825 2.341105 0.830139
v 0.478297 2.310730 1.796963
v 0.456989 2.341204 0.797524
v 0.494284 2.312439 1.822700
v 0.470416 2.322579 0.764909
v 0.502739 2.298009 1.848437
v 0.462531 2.294723 0.757368
v 0.498710 2.275892 1.859098
v 0.446417 2.271150 0.764909
v 0.484557 2.259045 1.848437
v 0.424252 2.271050 0.797524
v 0.468571 2.257336 1.822700
v 0.410825 2.289675 0.830139
v 0.460115 2.271767 1.796963
v 0.564808 2.241489 1.136965
v 0.557591 2.245245 1.598912
v 0.605481 2.294227 1.605717
v 0.607533 2.288485 1.132489
v 0.674015 2.273458 1.626982
v 0.681204 2.274806 1.115258
v 0.731359 2.228709 1.648247
v 0.736353 2.221436 1.098027
v 0.723751 2.158762 1.655052
v 0.727090 2.157024 1.093551
v 0.675862 2.109780 1.648247
v 0.684366 2.110028 1.098027
v 0.607328 2.130549 1.626982
v 0.610695 2.123707 1.115258
v 0.549983 2.175298 1.605717
v 0.555545 2.177077 1.132489
v 0.596827 2.226030 1.439659
v 0.642336 2.276250 1.443207
v 0.717826 2.254804 1.456492
v 0.777183 2.204858 1.469778
v 0.767195 2.136150 1.473325
v 0.721686 2.085929 1.469778
v 0.648023 2.105219 1.456492
v 0.588666 2.155164 1.443207
v 0.270750 2.384327 1.940869
v 0.268627 2.385432 1.936399
v 0.277069 2.382133 1.952341
v 0.281470 2.380221 1.962489
v 0.522976 2.263262 1.682874
v 0.564667 2.309636 1.696226
v 0.618257 2.294769 1.736532
v 0.662066 2.258941 1.776838
v 0.652641 2.195774 1.790190
v 0.610950 2.149400 1.776838
v 0.557360 2.164267 1.736532
v 0.513551 2.200095 1.696226
v 0.384219 2.335551 0.782455
v 0.388872 2.344870 0.779052
v 0.396159 2.344079 0.767477
v 0.396601 2.341175 0.752054
v 0.396021 2.329648 0.752059
v 0.387964 2.321170 0.753939
v 0.385038 2.320247 0.767477
v 0.377798 2.326658 0.777333
v 0.532338 2.321909 0.965618
v 0.589396 2.313880 0.931826
v 0.630182 2.270983 0.898034
v 0.620261 2.212627 0.888414
v 0.582484 2.168769 0.898034
v 0.525427 2.176799 0.931826
v 0.484211 2.220064 0.968126
v 0.494132 2.278420 0.977746
v 0.500192 2.275121 1.727189
v 0.531729 2.314302 1.741847
v 0.567438 2.303360 1.786990
v 0.597407 2.280118 1.832134
v 0.587197 2.229836 1.846792
v 0.555660 2.190655 1.832134
v 0.519951 2.201598 1.786990
v 0.489982 2.224839 1.741847
v 0.643634 2.272032 1.262886
v 0.718612 2.256777 1.259586
v 0.775741 2.203272 1.256287
v 0.766662 2.136427 1.255398
v 0.721999 2.088103 1.256287
v 0.647021 2.103358 1.259586
v 0.589892 2.156863 1.262886
v 0.597144 2.225864 1.263775
v 0.486797 2.332670 0.893429
v 0.526911 2.329995 0.855237
v 0.553355 2.298027 0.817046
v 0.543456 2.252603 0.806613
v 0.515376 2.216641 0.817046
v 0.475263 2.219316 0.855237
v 0.448818 2.251284 0.893429
v 0.456381 2.295769 0.901105
v 0.356499 2.330726 1.883003
v 0.328094 2.339780 1.890693
v 0.346058 2.355184 1.874100
v 0.360519 2.347819 1.877112
v 0.352073 2.376448 1.886283
v 0.370905 2.361598 1.883003
v 0.382181 2.360920 1.903662
v 0.373427 2.371976 1.912022
v 0.378572 2.362071 1.945920
v 0.390271 2.351519 1.923788
v 0.375865 2.320647 1.923788
v 0.360084 2.322077 1.945822
v 0.349348 2.322219 1.912540
v 0.363877 2.321695 1.903662
v 0.376792 2.338696 1.949832
v 0.385682 2.334722 1.930105
v 0.382847 2.336265 0.786015
v 0.388721 2.347723 0.782145
v 0.397483 2.346917 0.767477
v 0.398835 2.342788 0.748961
v 0.396693 2.329102 0.748893
v 0.388140 2.318300 0.750846
v 0.383714 2.317409 0.767477
v 0.376139 2.324687 0.780426
v 0.386284 2.334408 0.783318
v 0.390591 2.343975 0.780112
v 0.397704 2.343274 0.768430
v 0.398321 2.340280 0.753114
v 0.397809 2.328410 0.753422
v 0.389709 2.320259 0.754999
v 0.386583 2.319443 0.768430
v 0.380183 2.325349 0.778394
v 0.392260 2.331298 0.768502
vt 0.378970 0.769438
vt 0.343943 0.823099
vt 0.314949 0.813600
vt 0.283908 0.808320
vt 0.292479 0.730246
vt 0.252525 0.806260
vt 0.260123 0.718543
vt 0.222307 0.802838
vt 0.225115 0.717347
vt 0.192026 0.804273
vt 0.190114 0.716270
vt 0.160678 0.804341
vt 0.485654 0.143925
vt 0.543974 0.125331
vt 0.544915 0.128530
vt 0.157071 0.725857
vt 0.129259 0.807639
vt 0.116837 0.734750
vt 0.099619 0.815271
vt 0.201769 0.064602
vt 0.221494 0.017029
vt 0.233887 0.018598
vt 0.090873 0.277422
vt 0.026858 0.259906
vt 0.073978 0.126596
vt 0.073951 0.507750
vt 0.089142 0.627110
vt 0.019539 0.648389
vt 0.144405 0.296294
vt 0.124752 0.155145
vt 0.139600 0.610790
vt 0.192255 0.309807
vt 0.165240 0.175186
vt 0.184472 0.506772
vt 0.183369 0.600326
vt 0.238296 0.314144
vt 0.202614 0.188198
vt 0.231951 0.507999
vt 0.229003 0.598190
vt 0.282146 0.190804
vt 0.284520 0.312831
vt 0.274398 0.603295
vt 0.320285 0.180269
vt 0.333147 0.302480
vt 0.329948 0.512762
vt 0.317385 0.616589
vt 0.387797 0.287152
vt 0.389615 0.518074
vt 0.366662 0.636166
vt 0.414533 0.137761
vt 0.452819 0.273861
vt 0.463127 0.525810
vt 0.434702 0.661950
vt 0.463127 0.381914
vt 0.392306 0.386704
vt 0.279405 0.509875
vt 0.283299 0.398443
vt 0.235524 0.398792
vt 0.133843 0.506349
vt 0.138057 0.387040
vt 0.079859 0.376473
vt 0.000083 0.510660
vt 0.009499 0.367060
vt 0.476720 0.019715
vt 0.484254 0.000083
vt 0.544915 0.039003
vt 0.464084 0.038988
vt 0.537985 0.061280
vt 0.532142 0.080403
vt 0.469133 0.102813
vt 0.532803 0.086932
vt 0.538329 0.106149
vt 0.469723 0.125632
vt 0.543925 0.042187
vt 0.000000 0.000000
vt 0.106817 0.694653
vt 0.047557 0.721608
vt 0.150315 0.681027
vt 0.187017 0.671856
vt 0.226623 0.671126
vt 0.266098 0.674427
vt 0.302122 0.685963
vt 0.344625 0.702390
vt 0.401956 0.733149
vt 0.501723 0.219125
vt 0.501055 0.220531
vt 0.492679 0.221502
vt 0.246113 0.073989
vt 0.247602 0.021167
vt 0.261190 0.018610
vt 0.178609 0.051060
vt 0.211600 0.009044
vt 0.315165 0.055577
vt 0.291140 0.067457
vt 0.274919 0.018602
vt 0.224291 0.072443
vt 0.158636 0.029692
vt 0.200059 0.000083
vt 0.286472 0.012518
vt 0.296894 0.003432
vt 0.268034 0.073744
vt 0.379475 0.081559
vt 0.361995 0.162925
vt 0.341665 0.107785
vt 0.307898 0.123025
vt 0.276337 0.131171
vt 0.242293 0.192247
vt 0.212313 0.129080
vt 0.181347 0.118878
vt 0.148649 0.101448
vt 0.112648 0.072815
vt 0.068125 0.759354
vt 0.332023 0.741730
vt 0.187871 0.395318
vt 0.333543 0.393441
vt 0.244292 0.131397
vt 0.216894 0.970644
vt 0.191393 0.968917
vt 0.215677 0.990196
vt 0.191587 0.995724
vt 0.292055 0.973402
vt 0.267298 0.972579
vt 0.294761 0.998710
vt 0.166170 0.969305
vt 0.165634 0.986350
vt 0.137450 0.999917
vt 0.242255 0.970275
vt 0.238885 0.996398
vt 0.266433 0.988553
vt 0.316580 0.973307
vt 0.320569 0.988408
vt 0.141594 0.968004
vt 0.117308 0.966599
vt 0.112904 0.981608
vt 0.502599 0.247010
vt 0.508559 0.239127
vt 0.510614 0.240094
vt 0.492669 0.249668
vt 0.493174 0.247196
vt 0.483608 0.243771
vt 0.482755 0.233702
vt 0.481297 0.245725
vt 0.480480 0.233772
vt 0.481610 0.221831
vt 0.484002 0.223656
vt 0.491683 0.217502
vt 0.492346 0.220029
vt 0.502937 0.216199
vt 0.510614 0.226474
vt 0.508402 0.227514
vt 0.485136 0.224488
vt 0.484074 0.233661
vt 0.484732 0.242900
vt 0.501858 0.245663
vt 0.507512 0.238116
vt 0.507549 0.228661
vt 0.493546 0.245716
vt 0.495758 0.233507
vt 0.336398 0.035551
vt 0.484148 0.167283
vt 0.464855 0.062281
vt 0.000000 0.000000
vt 0.000000 0.000000
vt 0.503887 0.249786
vn -0.4685 0.7187 -0.5138
vn 0.0698 0.9916 -0.1092
vn 0.2374 0.8785 0.4146
vn 0.3123 0.3657 0.8768
vn -0.1875 -0.4079 0.8936
vn -0.5824 -0.7029 0.4084
vn -0.5729 -0.8166 0.0703
vn -0.7640 -0.6365 -0.1059
vn -0.8954 -0.0502 -0.4425
vn -0.6621 -0.7181 -0.2147
vn -0.9006 0.1001 0.4230
vn -0.9672 0.0818 -0.2404
vn -0.6752 -0.7306 0.1020
vn -0.6041 -0.7956 -0.0452
vn -0.2193 -0.9597 -0.1758
vn -0.3036 -0.9515 0.0492
vn 0.6191 -0.6100 -0.4946
vn 0.6753 -0.6947 0.2479
vn 0.8700 -0.0914 -0.4845
vn 0.9670 -0.0817 0.2413
vn 0.6567 0.7342 -0.1723
vn 0.5984 0.7984 0.0664
vn 0.2052 0.9731 0.1046
vn 0.3004 0.9531 -0.0373
vn -0.6462 0.6287 0.4327
vn -0.6747 0.6944 -0.2500
vn -0.7409 0.6716 -0.0020
vn 0.2766 0.9608 -0.0205
vn 0.6451 0.7640 -0.0100
vn 0.9896 -0.1440 -0.0026
vn 0.7411 -0.6714 -0.0027
vn -0.2551 -0.9669 0.0104
vn -0.6423 -0.7664 -0.0116
vn -0.9934 0.1143 -0.0019
vn -0.3905 0.5383 -0.7468
vn 0.1530 0.9811 0.1185
vn -0.5782 -0.8100 0.0982
vn -0.5748 -0.8018 0.1632
vn 0.1356 0.9890 0.0593
vn 0.0186 -0.2522 0.9675
vn -0.9208 0.0558 -0.3860
vn -0.6151 -0.7878 -0.0318
vn -0.3440 -0.9321 0.1135
vn 0.5770 -0.6580 0.4838
vn 0.8809 -0.0316 0.4722
vn 0.5651 0.8173 0.1123
vn 0.2896 0.9566 -0.0323
vn -0.6210 0.6737 -0.4006
vn 0.5277 0.8350 -0.1559
vn 0.1205 -0.0139 -0.9926
vn -0.7529 -0.6550 0.0641
vn 0.0701 0.9963 0.0507
vn -0.0108 -0.2980 -0.9545
vn -0.8074 0.0699 0.5858
vn -0.5831 0.5120 0.6307
vn 0.3272 0.8723 -0.3634
vn -0.6063 0.6574 0.4475
vn 0.1643 0.9855 0.0432
vn 0.5637 0.7705 -0.2977
vn 0.7239 -0.0094 -0.6898
vn 0.4565 -0.5471 -0.7016
vn -0.3056 -0.9033 -0.3013
vn -0.7067 -0.7064 0.0396
vn -0.8876 0.0760 0.4544
vn -0.8788 0.0398 -0.4756
vn -0.6660 -0.7436 0.0593
vn -0.4764 -0.8631 0.1676
vn 0.3409 -0.5576 0.7569
vn 0.6748 0.0769 0.7340
vn 0.4336 0.8853 0.1680
vn 0.2233 0.9730 0.0592
vn -0.5887 0.6524 -0.4773
vn -0.9614 0.0977 0.2572
vn -0.6801 -0.7302 0.0659
vn -0.2023 -0.9754 -0.0870
vn 0.7069 -0.6581 -0.2593
vn 0.9597 -0.1270 -0.2508
vn 0.6785 0.7297 -0.0851
vn 0.2018 0.9771 0.0674
vn -0.6783 0.6881 0.2578
vn -0.8502 0.0542 0.5236
vn -0.7443 -0.6665 0.0425
vn -0.4140 -0.8286 -0.3768
vn 0.2750 -0.4597 -0.8444
vn 0.5461 0.0727 -0.8346
vn 0.4413 0.8146 -0.3764
vn 0.1079 0.9932 0.0438
vn -0.5808 0.5944 0.5562
vn 0.2358 -0.5300 0.8145
vn 0.5931 -0.6945 0.4072
vn 0.3250 0.9343 -0.1467
vn 0.5633 0.7767 -0.2820
vn -0.6265 -0.7494 -0.2144
vn -0.2855 -0.8633 -0.4162
vn 0.6178 0.2473 0.7465
vn 0.8717 -0.0550 0.4870
vn -0.3859 -0.9043 0.1827
vn -0.0889 -0.9960 0.0010
vn 0.5397 0.7974 0.2698
vn 0.7770 0.6292 -0.0185
vn -0.2657 0.6649 -0.6981
vn 0.2892 0.1837 -0.9395
vn -0.6680 -0.0972 -0.7378
vn -0.3645 -0.4520 -0.8142
vn -0.8716 0.2911 -0.3944
vn -0.7772 0.3627 -0.5141
vn -0.9012 0.4205 -0.1050
vn -0.8200 0.0410 -0.5710
vn -0.7789 0.5691 -0.2634
vn -0.9491 0.2022 -0.2417
vn -0.7188 0.3354 -0.6090
vn -0.6326 0.6752 -0.3794
vn -0.2831 0.4457 0.8492
vn -0.5248 -0.8391 0.1429
vn 0.3055 -0.4233 -0.8529
vn 0.4589 0.1708 -0.8719
vn 0.3849 0.9115 0.1453
vn -0.5925 0.0302 0.8050
vn -0.3702 -0.9132 -0.1705
vn -0.6464 0.6514 -0.3974
vn -0.7887 0.3555 -0.5016
vn -0.8867 0.4257 -0.1805
vn -0.9361 0.0313 -0.3504
vn -0.8303 0.0860 0.5506
vn -0.7772 0.3627 -0.5142
vn 0.2626 0.1822 -0.9476
vn 0.1229 0.9922 0.0188
vn 0.1932 0.9605 -0.2001
vn -0.7639 0.1383 0.6304
vn -0.5603 0.5740 0.5971
vn -0.5945 0.5834 0.5533
vn -0.7479 -0.6602 0.0692
vn -0.4403 -0.8456 -0.3018
vn 0.2755 -0.4586 -0.8449
vn 0.5455 0.0717 -0.8351
vn 0.4401 0.8457 -0.3018
vn 0.1003 0.9924 0.0712
vn -0.6229 0.6142 0.4845
vn -0.8891 0.0732 0.4518
vn -0.7160 -0.6930 0.0843
vn -0.3194 -0.9078 -0.2719
vn 0.4530 -0.5559 -0.6970
vn 0.7287 -0.0015 -0.6849
vn 0.5595 0.7840 -0.2689
vn 0.1481 0.9852 0.0865
vn -0.9056 0.0855 0.4154
vn -0.6236 0.6632 0.4138
vn -0.6757 -0.7300 0.1028
vn -0.2318 -0.9589 -0.1636
vn 0.6065 -0.6290 -0.4863
vn 0.8767 -0.0706 -0.4757
vn 0.6491 0.7436 -0.1604
vn 0.1994 0.9742 0.1053
vn -0.9555 0.1186 0.2701
vn -0.6978 0.6607 0.2766
vn -0.6825 -0.7276 0.0692
vn -0.2015 -0.9756 -0.0868
vn 0.7029 -0.6635 -0.2563
vn 0.9600 -0.1205 -0.2528
vn 0.6791 0.7291 -0.0849
vn 0.1981 0.9776 0.0708
vn -0.9945 0.1046 -0.0058
vn -0.7047 0.7092 -0.0217
vn -0.6832 -0.7301 0.0104
vn -0.1998 -0.9798 -0.0103
vn 0.7343 -0.6788 -0.0058
vn 0.9909 -0.1345 -0.0057
vn 0.6839 0.7295 0.0100
vn 0.1998 0.9798 0.0106
vn -0.6384 -0.7688 -0.0382
vn -0.9634 0.0985 -0.2492
vn -0.2659 -0.9607 0.0793
vn -0.7120 0.6618 -0.2347
vn 0.2786 0.9598 -0.0334
vn 0.6348 0.7704 0.0600
vn 0.9568 -0.1255 0.2624
vn 0.7042 -0.6572 0.2686
vn 0.5773 0.8049 0.1372
vn 0.2993 0.9536 -0.0332
vn -0.6280 0.6692 -0.3971
vn -0.9180 0.0617 -0.3917
vn -0.6073 -0.7938 -0.0327
vn -0.3264 -0.9350 0.1389
vn 0.5865 -0.6420 0.4939
vn 0.8745 -0.0482 0.4826
vn 0.6600 0.0598 0.7489
vn 0.4320 0.8541 0.2897
vn 0.2234 0.9728 0.0618
vn -0.5770 0.6580 -0.4839
vn -0.8851 0.0340 -0.4641
vn -0.6640 -0.7454 0.0592
vn -0.4518 -0.8439 0.2894
vn 0.3667 -0.5465 0.7529
vn -0.0371 -0.3238 0.9454
vn 0.2079 0.2346 0.9496
vn 0.2602 0.9178 0.2998
vn 0.0991 0.9822 0.1597
vn -0.5678 0.6473 -0.5085
vn -0.8508 0.0197 -0.5251
vn -0.7407 -0.6537 0.1552
vn -0.6008 -0.7429 0.2952
vn 0.1724 -0.6261 0.7605
vn -0.3423 -0.8993 0.2723
vn -0.5775 -0.8034 -0.1450
vn -0.7027 -0.2010 -0.6825
vn -0.3314 0.5709 -0.7512
vn 0.2504 0.9433 -0.2181
vn 0.5190 0.8353 0.1815
vn 0.5790 0.1436 0.8026
vn -0.3571 -0.8960 -0.2641
vn -0.0323 -0.9995 0.0061
vn 0.0276 -0.3315 -0.9430
vn 0.1983 0.4444 -0.8736
vn 0.5825 0.7306 -0.3563
vn 0.7466 0.6605 0.0797
vn 0.9116 -0.0007 0.4110
vn 0.6067 -0.6367 0.4759
vn 0.1482 0.9832 0.1064
vn 0.1933 0.9699 0.1480
vn -0.6423 -0.0728 -0.7630
vn -0.6243 -0.7809 -0.0203
vn 0.2181 0.9452 0.2430
vn 0.1931 0.1476 0.9700
vn -0.5673 -0.8037 0.1796
vn 0.4711 0.1548 -0.8684
vn -0.8374 -0.1290 -0.5311
vn 0.5292 0.8344 -0.1541
vn -0.6903 0.3344 -0.6416
vn -0.6932 0.6166 -0.3732
vn 0.3871 0.9105 0.1454
vn -0.8938 0.4171 -0.1647
vn -0.6725 0.5230 -0.5237
vn -0.9613 0.1517 -0.2301
vn -0.5249 -0.8391 0.1429
vn -0.7387 0.6444 -0.1976
vn -0.8761 0.2579 -0.4074
vn -0.9044 0.4104 -0.1166
vn -0.8766 0.3317 -0.3486
vn 0.1524 -0.4053 -0.9014
vn -0.3701 -0.9132 -0.1706
vn -0.5075 0.0442 0.8605
vn -0.3037 0.4721 0.8276
vn -0.7354 -0.6757 -0.0504
vn -0.5314 -0.7652 -0.3635
vn 0.0238 -0.1961 -0.9803
vn -0.7454 0.4715 -0.4712
vn -0.8371 0.5366 -0.1069
usemtl Banana_color
s off
f 69/1/1 2/2/1 4/3/1
f 4/3/2 6/4/2 71/5/2
f 6/4/3 8/6/3 72/7/3
f 8/6/4 10/8/4 73/9/4
f 10/8/5 12/10/5 74/11/5
f 74/11/6 12/10/6 14/12/6
f 94/13/7 41/14/7 42/15/7
f 75/16/8 14/12/8 16/17/8
f 76/18/9 16/17/9 2/19/9
f 13/20/10 115/21/10 114/22/10
f 32/23/11 17/24/11 68/25/11
f 40/26/12 31/27/12 18/28/12
f 30/29/13 32/23/13 67/30/13
f 29/31/14 31/27/14 40/26/14
f 28/32/15 30/29/15 66/33/15
f 38/34/16 27/35/16 29/31/16
f 26/36/17 28/32/17 65/37/17
f 37/38/18 25/39/18 27/35/18
f 63/40/19 24/41/19 26/36/19
f 23/42/20 25/39/20 37/38/20
f 62/43/21 22/44/21 24/41/21
f 35/45/22 21/46/22 23/42/22
f 20/47/23 22/44/23 62/43/23
f 34/48/24 19/49/24 21/46/24
f 68/50/25 17/51/25 20/47/25
f 33/52/26 18/53/26 19/49/26
f 84/54/27 33/52/27 34/48/27
f 77/55/28 34/48/28 35/45/28
f 35/45/29 36/56/29 79/57/29
f 36/56/30 37/38/30 80/58/30
f 80/58/31 37/38/31 38/34/31
f 38/34/32 39/59/32 82/60/32
f 39/59/33 40/26/33 83/61/33
f 40/26/34 33/62/34 84/63/34
f 97/64/35 95/65/35 42/66/35
f 100/67/36 43/68/36 44/69/36
f 104/70/37 44/71/37 43/72/37
f 105/73/38 43/72/38 41/14/38
f 100/67/39 97/64/39 41/74/39
f 104/70/40 107/75/40 44/71/40
f 31/27/41 52/76/41 45/77/41
f 51/78/42 52/76/42 31/27/42
f 27/35/43 50/79/43 51/78/43
f 25/39/44 49/80/44 50/79/44
f 48/81/45 49/80/45 25/39/45
f 47/82/46 48/81/46 23/42/46
f 19/49/47 46/83/47 47/82/47
f 18/53/48 45/84/48 46/83/48
f 60/85/49 124/86/49 123/87/49
f 9/88/50 113/89/50 112/90/50
f 13/20/51 15/91/51 116/92/51
f 3/93/52 5/94/52 111/95/52
f 9/88/53 11/96/53 114/22/53
f 15/91/54 1/97/54 109/98/54
f 3/93/55 110/99/55 109/100/55
f 5/94/56 7/101/56 112/90/56
f 92/102/57 68/50/57 61/103/57
f 85/104/58 61/103/58 62/43/58
f 86/105/59 62/43/59 63/40/59
f 87/106/60 63/40/60 64/107/60
f 64/107/61 65/37/61 89/108/61
f 65/37/62 66/33/62 90/109/62
f 66/33/63 67/30/63 91/110/63
f 67/30/64 68/25/64 92/111/64
f 52/76/65 76/18/65 69/112/65
f 75/16/66 76/18/66 52/76/66
f 50/79/67 74/11/67 75/16/67
f 73/9/68 74/11/68 50/79/68
f 72/7/69 73/9/69 49/80/69
f 71/5/70 72/7/70 48/81/70
f 70/113/71 71/5/71 47/82/71
f 45/84/72 69/1/72 70/113/72
f 83/61/73 84/63/73 17/24/73
f 82/60/74 83/61/74 32/23/74
f 28/32/75 81/114/75 82/60/75
f 80/58/76 81/114/76 28/32/76
f 79/57/77 80/58/77 26/36/77
f 78/115/78 79/57/78 24/41/78
f 20/47/79 77/55/79 78/115/79
f 17/51/80 84/54/80 77/55/80
f 91/110/81 92/111/81 1/97/81
f 90/109/82 91/110/82 15/91/82
f 89/108/83 90/109/83 13/20/83
f 88/116/84 89/108/84 11/96/84
f 7/101/85 87/106/85 88/116/85
f 5/94/86 86/105/86 87/106/86
f 3/93/87 85/104/87 86/105/87
f 92/111/88 85/104/88 3/93/88
f 10/8/89 108/117/89 103/118/89
f 108/117/90 107/119/90 104/120/90
f 4/3/91 98/121/91 99/122/91
f 99/122/92 98/121/92 97/123/92
f 16/17/93 14/12/93 106/124/93
f 106/124/94 105/125/94 94/126/94
f 10/8/95 8/6/95 102/127/95
f 108/117/96 102/127/96 101/128/96
f 12/10/97 103/118/97 106/124/97
f 106/124/98 103/118/98 104/120/98
f 8/6/99 6/4/99 99/122/99
f 102/127/100 99/122/100 100/129/100
f 4/3/101 2/2/101 96/130/101
f 98/121/102 96/130/102 95/131/102
f 16/17/103 93/132/103 96/133/103
f 93/132/104 94/126/104 95/134/104
f 54/135/105 53/136/105 109/137/105
f 54/135/106 111/138/106 55/139/106
f 56/140/107 55/139/107 111/138/107
f 57/141/108 56/140/108 112/142/108
f 57/141/109 113/143/109 114/144/109
f 58/145/110 114/144/110 115/146/110
f 59/147/111 115/146/111 116/148/111
f 60/85/112 109/149/112 53/150/112
f 58/145/113 122/151/113 121/152/113
f 55/139/114 56/140/114 120/153/114
f 54/135/115 118/154/115 117/155/115
f 60/85/116 53/150/116 117/156/116
f 58/145/117 59/147/117 123/87/117
f 56/140/118 57/141/118 121/152/118
f 54/135/119 55/139/119 119/157/119
f 124/86/120 117/156/120 125/158/120
f 118/154/121 119/157/121 125/158/121
f 122/151/122 123/87/122 125/158/122
f 120/153/123 121/152/123 125/158/123
f 15/91/124 91/110/124 1/97/124
f 55/139/125 54/135/125 111/138/125
f 60/85/112 109/137/112 53/136/112
f 7/101/126 9/88/126 112/90/126
f 110/99/127 3/93/127 111/95/127
f 111/95/128 5/94/128 112/90/128
f 116/92/129 15/91/129 109/98/129
f 1/159/130 3/93/130 109/100/130
f 1/97/131 92/111/131 3/93/131
f 13/20/132 90/109/132 15/91/132
f 11/96/133 89/108/133 13/20/133
f 9/88/134 88/116/134 11/96/134
f 9/88/135 7/101/135 88/116/135
f 7/101/136 5/94/136 87/106/136
f 5/94/137 3/93/137 86/105/137
f 85/104/138 92/102/138 61/103/138
f 91/110/139 67/30/139 92/111/139
f 90/109/140 66/33/140 91/110/140
f 89/108/141 65/37/141 90/109/141
f 88/116/142 64/107/142 89/108/142
f 88/116/143 87/106/143 64/107/143
f 87/106/144 86/105/144 63/40/144
f 86/105/145 85/104/145 62/43/145
f 67/30/146 32/23/146 68/25/146
f 61/103/147 68/50/147 20/47/147
f 66/33/148 30/29/148 67/30/148
f 65/37/149 28/32/149 66/33/149
f 64/107/150 26/36/150 65/37/150
f 64/107/151 63/40/151 26/36/151
f 63/40/152 62/43/152 24/41/152
f 61/103/153 20/47/153 62/43/153
f 32/23/154 83/61/154 17/24/154
f 20/47/155 17/51/155 77/55/155
f 30/29/156 82/60/156 32/23/156
f 30/29/157 28/32/157 82/60/157
f 26/36/158 80/58/158 28/32/158
f 24/41/159 79/57/159 26/36/159
f 22/44/160 78/115/160 24/41/160
f 22/44/161 20/47/161 78/115/161
f 83/61/162 40/26/162 84/63/162
f 77/55/163 84/54/163 34/48/163
f 82/60/164 39/59/164 83/61/164
f 81/114/165 38/34/165 82/60/165
f 81/114/166 80/58/166 38/34/166
f 79/57/167 36/56/167 80/58/167
f 78/115/168 35/45/168 79/57/168
f 78/115/169 77/55/169 35/45/169
f 39/59/170 29/31/170 40/26/170
f 33/62/171 40/26/171 18/28/171
f 39/59/172 38/34/172 29/31/172
f 34/48/173 33/52/173 19/49/173
f 35/45/174 34/48/174 21/46/174
f 36/56/175 35/45/175 23/42/175
f 36/56/176 23/42/176 37/38/176
f 38/34/177 37/38/177 27/35/177
f 21/46/178 47/82/178 23/42/178
f 21/46/179 19/49/179 47/82/179
f 19/49/180 18/53/180 46/83/180
f 18/28/181 31/27/181 45/77/181
f 29/31/182 51/78/182 31/27/182
f 29/31/183 27/35/183 51/78/183
f 27/35/184 25/39/184 50/79/184
f 23/42/185 48/81/185 25/39/185
f 48/81/186 72/7/186 49/80/186
f 47/82/187 71/5/187 48/81/187
f 46/83/188 70/113/188 47/82/188
f 46/83/189 45/84/189 70/113/189
f 45/77/190 52/76/190 69/112/190
f 51/78/191 75/16/191 52/76/191
f 51/78/192 50/79/192 75/16/192
f 49/80/193 73/9/193 50/79/193
f 73/9/194 10/8/194 74/11/194
f 72/7/195 8/6/195 73/9/195
f 71/5/196 6/4/196 72/7/196
f 70/113/197 4/3/197 71/5/197
f 70/113/198 69/1/198 4/3/198
f 69/112/199 76/18/199 2/19/199
f 76/18/200 75/16/200 16/17/200
f 75/16/201 74/11/201 14/12/201
f 12/10/202 10/8/202 103/118/202
f 14/12/203 12/10/203 106/124/203
f 93/132/204 16/17/204 106/124/204
f 2/19/205 16/17/205 96/133/205
f 98/121/206 4/3/206 96/130/206
f 6/4/207 4/3/207 99/122/207
f 102/127/208 8/6/208 99/122/208
f 108/117/209 10/8/209 102/127/209
f 93/132/210 106/124/210 94/126/210
f 105/125/211 106/124/211 104/120/211
f 96/133/212 93/132/212 95/134/212
f 97/123/213 98/121/213 95/131/213
f 100/129/214 99/122/214 97/123/214
f 101/128/215 102/127/215 100/129/215
f 107/119/216 108/117/216 101/128/216
f 103/118/217 108/117/217 104/120/217
f 43/68/218 100/67/218 41/74/218
f 41/74/219 97/64/219 42/66/219
f 95/160/220 94/13/220 42/15/220
f 94/13/221 105/73/221 41/14/221
f 101/161/222 100/67/222 44/69/222
f 44/162/223 107/75/223 101/163/223
f 105/73/224 104/70/224 43/72/224
f 124/86/225 60/85/225 117/156/225
f 60/85/226 59/147/226 116/148/226
f 59/147/227 60/85/227 123/87/227
f 123/87/228 124/86/228 125/158/228
f 121/152/229 122/151/229 125/158/229
f 122/151/230 58/145/230 123/87/230
f 59/147/231 58/145/231 115/146/231
f 58/145/232 57/141/232 114/144/232
f 113/143/233 57/141/233 112/142/233
f 119/157/234 55/139/234 120/153/234
f 112/142/235 56/140/235 111/138/235
f 117/155/236 118/154/236 125/158/236
f 119/157/237 120/153/237 125/158/237
f 110/164/238 54/135/238 109/137/238
f 53/136/239 54/135/239 117/155/239
f 118/154/240 54/135/240 119/157/240
f 120/153/241 56/140/241 121/152/241
f 57/141/242 58/145/242 121/152/242
f 115/21/243 13/20/243 116/92/243
f 11/96/244 13/20/244 114/22/244
f 113/89/245 9/88/245 114/22/245
f 54/135/246 110/164/246 111/138/246
f 60/85/247 116/148/247 109/149/247