# Blender v3.0.0 OBJ File: 'Table.blend'
# www.blender.org
mtllib TableAndLegs.mtl
o Table_TableLeg2
v 1.390307 1.939421 -1.855930
v 1.794263 1.939421 -1.469246
v 1.794263 1.939421 -1.855930
v 1.390307 -0.060579 -1.469246
v 1.794263 -0.060579 -1.469246
v 1.390307 1.939421 -1.469246
v 1.390307 -0.060579 -1.855930
v 1.794263 -0.060579 -1.855930
v -1.886259 2.127107 -2.018367
v 1.886259 2.127106 2.018367
v 1.886259 2.127107 -2.018367
v -1.886259 1.923972 2.018367
v 1.886259 1.923972 2.018367
v -1.886259 2.127106 2.018367
v -1.886259 1.923972 -2.018367
v 1.886259 1.923972 -2.018367
v 1.333239 1.939421 1.439825
v 1.737195 1.939421 1.826509
v 1.737195 1.939421 1.439825
v 1.333239 -0.060579 1.826509
v 1.737195 -0.060579 1.826509
v 1.333239 1.939421 1.826509
v 1.333239 -0.060579 1.439825
v 1.737195 -0.060579 1.439825
v -1.733598 1.939421 -1.892045
v -1.329642 1.939421 -1.505361
v -1.329642 1.939421 -1.892045
v -1.733598 -0.060579 -1.505362
v -1.329642 -0.060579 -1.505362
v -1.733598 1.939421 -1.505361
v -1.733598 -0.060579 -1.892046
v -1.329642 -0.060579 -1.892046
v -1.733598 1.939421 1.436256
v -1.329642 1.939420 1.822940
v -1.329642 1.939421 1.436256
v -1.733598 -0.060580 1.822940
v -1.329642 -0.060580 1.822940
v -1.733598 1.939420 1.822940
v -1.733598 -0.060580 1.436256
v -1.329642 -0.060580 1.436256
vn 0.0000 1.0000 0.0000
vn 0.0000 -0.0000 1.0000
vn -1.0000 0.0000 0.0000
vn 0.0000 -1.0000 -0.0000
vn 1.0000 0.0000 0.0000
vn 0.0000 0.0000 -1.0000
usemtl TableLeg
s 1
f 1//1 2//1 3//1
f 2//2 4//2 5//2
f 6//3 7//3 4//3
f 8//4 4//4 7//4
f 3//5 5//5 8//5
f 1//6 8//6 7//6
f 1//1 6//1 2//1
f 2//2 6//2 4//2
f 6//3 1//3 7//3
f 8//4 5//4 4//4
f 3//5 2//5 5//5
f 1//6 3//6 8//6
f 9//1 10//1 11//1
f 10//2 12//2 13//2
f 14//3 15//3 12//3
f 16//4 12//4 15//4
f 11//5 13//5 16//5
f 9//6 16//6 15//6
f 9//1 14//1 10//1
f 10//2 14//2 12//2
f 14//3 9//3 15//3
f 16//4 13//4 12//4
f 11//5 10//5 13//5
f 9//6 11//6 16//6
f 17//1 18//1 19//1
f 18//2 20//2 21//2
f 22//3 23//3 20//3
f 24//4 20//4 23//4
f 19//5 21//5 24//5
f 17//6 24//6 23//6
f 17//1 22//1 18//1
f 18//2 22//2 20//2
f 22//3 17//3 23//3
f 24//4 21//4 20//4
f 19//5 18//5 21//5
f 17//6 19//6 24//6
f 25//1 26//1 27//1
f 26//2 28//2 29//2
f 30//3 31//3 28//3
f 32//4 28//4 31//4
f 27//5 29//5 32//5
f 25//6 32//6 31//6
f 25//1 30//1 26//1
f 26//2 30//2 28//2
f 30//3 25//3 31//3
f 32//4 29//4 28//4
f 27//5 26//5 29//5
f 25//6 27//6 32//6
f 33//1 34//1 35//1
f 34//2 36//2 37//2
f 38//3 39//3 36//3
f 40//4 36//4 39//4
f 35//5 37//5 40//5
f 33//6 40//6 39//6
f 33//1 38//1 34//1
f 34//2 38//2 36//2
f 38//3 33//3 39//3
f 40//4 37//4 36//4
f 35//5 34//5 37//5
f 33//6 35//6 40//6
